HIERARCHY
ROOT hip
{
	OFFSET 0.000000 0.000000 0.000000 
	CHANNELS 6 Xposition Yposition Zposition Xrotation Zrotation Yrotation
	JOINT abdomen
	{
		OFFSET 0.000000 3.402643 0.000000 
		CHANNELS 3 Xrotation Zrotation Yrotation
		JOINT chest
		{
			OFFSET 0.000000 8.438565 -0.680529 
			CHANNELS 3 Xrotation Zrotation Yrotation
			JOINT neck
			{
				OFFSET 0.000000 10.207942 -0.272212 
				CHANNELS 3 Xrotation Zrotation Yrotation
				JOINT head
				{
					OFFSET 0.000000 3.130431 0.000000 
					CHANNELS 3 Xrotation Zrotation Yrotation
					End Site
					{
						OFFSET 0.000000 3.130435 0.000000 
					}
				}
			}
			JOINT lCollar
			{
				OFFSET 3.470700 6.669187 -0.816635 
				CHANNELS 3 Yrotation Zrotation Xrotation
				JOINT lShldr
				{
					OFFSET 3.198488 0.000000 0.000000 
					CHANNELS 3 Zrotation Yrotation Xrotation
					JOINT lForeArm
					{
						OFFSET 10.139888 0.000000 0.000000 
						CHANNELS 3 Yrotation Zrotation Xrotation
						JOINT lHand
						{
							OFFSET 8.370511 0.000000 0.000000 
							CHANNELS 3 Zrotation Yrotation Xrotation
							End Site
							{
								OFFSET 4.083176 0.000000 0.000000 
							}
						}
					}
				}
			}
			JOINT rCollar
			{
				OFFSET -3.470700 6.669187 -0.816635 
				CHANNELS 3 Yrotation Zrotation Xrotation
				JOINT rShldr
				{
					OFFSET -3.198488 0.000000 0.000000 
					CHANNELS 3 Zrotation Yrotation Xrotation
					JOINT rForeArm
					{
						OFFSET -10.139888 0.000000 0.000000 
						CHANNELS 3 Yrotation Zrotation Xrotation
						JOINT rHand
						{
							OFFSET -8.370511 0.000000 0.000000 
							CHANNELS 3 Zrotation Yrotation Xrotation
							End Site
							{
								OFFSET -4.083176 0.000000 0.000000 
							}
						}
					}
				}
			}
		}
	}
	JOINT lThigh
	{
		OFFSET 5.308129 -1.633274 1.361059 
		CHANNELS 3 Xrotation Zrotation Yrotation
		JOINT lShin
		{
			OFFSET -2.041588 -20.007561 0.000000 
			CHANNELS 3 Xrotation Zrotation Yrotation
			JOINT lFoot
			{
				OFFSET 0.000000 -19.190928 -1.224953 
				CHANNELS 3 Xrotation Yrotation Zrotation
				End Site
				{
					OFFSET 0.000000 -2.449906 4.627600 
				}
			}
		}
	}
	JOINT rThigh
	{
		OFFSET -5.308129 -1.633274 1.361059 
		CHANNELS 3 Xrotation Zrotation Yrotation
		JOINT rShin
		{
			OFFSET 2.041588 -20.007561 0.000000 
			CHANNELS 3 Xrotation Zrotation Yrotation
			JOINT rFoot
			{
				OFFSET 0.000000 -19.190928 -1.224953 
				CHANNELS 3 Xrotation Yrotation Zrotation
				End Site
				{
					OFFSET 0.000000 -2.449906 4.627600 
				}
			}
		}
	}
}
MOTION
Frames: 8
Frame Time: 0.016667
0.541662 52.989513 0.609407 -11.697957 1.733397 7.425550 25.244127 1.688263 -1.434254 4.070390 0.975704 -3.594066 -1.792891 4.821601 -0.314450 10.240585 -4.106330 9.242431 -16.137320 -11.851733 -0.617968 -59.870693 16.651196 -26.523825 -27.487946 -5.000000 30.757336 -16.440531 -3.675484 7.881323 14.278651 13.058571 -0.696051 61.086502 -7.989167 -18.530809 22.436556 5.000000 17.670624 14.354651 -22.696899 6.504097 17.730257 12.018828 -1.290705 6.911724 -4.853540 -0.789526 -12.592367 8.294347 -3.751723 24.280075 -5.946711 -7.750043 -1.276657 3.215050 -0.024948 -9.151315 -20.640615 4.698674 
0.540473 52.989674 0.619309 -11.718374 1.733513 7.396267 25.263479 1.696864 -1.430991 4.070390 0.975704 -3.594066 -1.773361 4.821601 -0.314450 10.250184 -4.116197 9.222951 -16.147192 -11.861486 -0.618470 -59.862011 16.657703 -26.554951 -27.524130 -5.000000 30.720453 -16.467894 -3.602802 7.944606 14.257405 13.099986 -0.686642 61.029289 -7.977469 -18.528439 22.447454 5.000000 17.660427 14.350087 -22.733829 6.492084 17.789640 12.038143 -1.254570 6.877707 -4.867999 -0.787791 -12.635798 8.228997 -3.783069 24.299435 -5.946745 -7.729759 -1.268236 3.218377 -0.024412 -9.197575 -20.663689 4.660476 
0.541712 52.989155 0.627682 -11.738792 1.733627 7.366687 25.293034 1.698613 -1.409153 4.070964 0.965954 -3.584303 -1.704187 4.823061 -0.304828 10.225260 -4.107011 9.183290 -16.166832 -11.871239 -0.618973 -59.875267 16.671555 -26.571917 -27.533531 -5.000000 30.692692 -16.432919 -3.621284 7.966179 14.267531 13.129242 -0.688153 61.002823 -7.991477 -18.532789 22.489580 5.000000 17.628544 14.275832 -22.820463 6.463173 17.839218 12.019288 -1.197384 6.903269 -4.881999 -0.809424 -12.878919 8.316669 -3.667719 24.321079 -5.975730 -7.707608 -1.247585 3.226750 -0.013585 -9.182796 -20.607952 4.688221 
0.542951 52.988640 0.636053 -11.768026 1.743466 7.327644 25.303394 1.700161 -1.387131 4.061198 0.965954 -3.584303 -1.644777 4.824522 -0.295206 10.199626 -4.097708 9.154073 -16.176598 -11.871239 -0.618973 -59.882931 16.686213 -26.598999 -27.548216 -5.000000 30.664364 -16.396650 -3.630489 7.985687 14.277539 13.148747 -0.691383 60.966854 -8.017130 -18.532385 22.528717 5.000000 17.597246 14.213284 -22.899063 6.429893 17.865334 12.016944 -1.166381 6.913130 -4.901667 -0.820785 -13.107848 8.319263 -3.585335 24.317467 -5.984861 -7.680577 -1.218068 3.196561 -0.001014 -9.193549 -20.630209 4.697798 
0.547911 52.990467 0.643548 -11.754520 1.772523 7.327945 25.283798 1.690701 -1.391306 4.070635 0.965940 -3.603831 -1.605665 4.814866 -0.293746 10.224753 -4.098604 9.075455 -16.196348 -11.890742 -0.619980 -59.864059 16.673185 -26.594940 -27.541212 -5.000000 30.632660 -16.346025 -3.650063 8.046039 14.260956 13.204852 -0.703629 60.886158 -7.997503 -18.500755 22.512232 5.000000 17.543972 14.175961 -22.822168 6.506793 17.888220 11.980052 -1.194603 6.884390 -4.892160 -0.798523 -13.002949 8.295490 -3.626631 24.331993 -6.005354 -7.675914 -1.209868 3.210415 0.008985 -9.199862 -20.686325 4.689784 
0.552871 52.992302 0.651044 -11.740710 1.801541 7.337707 25.274141 1.672631 -1.398692 4.080235 0.965933 -3.613596 -1.576270 4.795554 -0.290826 10.237885 -4.109026 9.007275 -16.216204 -11.919998 -0.621488 -59.847752 16.665047 -26.598988 -27.525269 -5.000000 30.607304 -16.283848 -3.664558 8.094356 14.252055 13.273118 -0.707164 60.806873 -7.991061 -18.474213 22.505123 5.000000 17.490973 14.141652 -22.752068 6.568142 17.896145 11.930098 -1.215175 6.848447 -4.858560 -0.785039 -12.881713 8.330017 -3.648727 24.342222 -6.044366 -7.686972 -1.206986 3.222238 0.018442 -9.178467 -20.710686 4.695240 
0.557073 52.993793 0.657927 -11.739154 1.811187 7.347467 25.264267 1.690701 -1.391306 4.089837 0.965926 -3.633125 -1.546826 4.766588 -0.286445 10.233030 -4.109800 8.939095 -16.226295 -11.949254 -0.622998 -59.818169 16.643057 -26.588898 -27.516764 -5.000000 30.585600 -16.276815 -3.684550 8.099007 14.230536 13.295026 -0.698962 60.774353 -7.969110 -18.454493 22.505896 5.000000 17.428350 14.135326 -22.712059 6.642169 17.906282 11.930411 -1.254770 6.822954 -4.861074 -0.773025 -12.815427 8.316011 -3.682334 24.349781 -6.054389 -7.689929 -1.198680 3.214600 0.009525 -9.180240 -20.692732 4.679025 
0.560517 52.994930 0.664200 -11.749555 1.801422 7.366990 25.262999 1.737857 -1.404563 4.089672 0.965919 -3.642890 -1.518086 4.716850 -0.288767 10.210855 -4.101028 8.860476 -16.246264 -11.988262 -0.625009 -59.774345 16.615633 -26.557077 -27.498352 -5.000000 30.582647 -16.316509 -3.720685 8.062680 14.201116 13.285273 -0.698457 60.760380 -7.949480 -18.431377 22.514616 5.000000 17.373356 14.142875 -22.728842 6.719986 17.928850 11.932387 -1.244249 6.793875 -4.851329 -0.770267 -12.843793 8.321582 -3.666718 24.356766 -6.034130 -7.724154 -1.181639 3.221203 0.020370 -9.155614 -20.715311 4.673989 
